<svg width="568" height="141" viewBox="0 0 568 141" fill="none" xmlns="http://www.w3.org/2000/svg">
<path d="M473.63 0.19L452.2 39H501.01L445.13 140.2H490.33L567.75 0L473.63 0.19Z" fill="url(#paint0_linear_455_97)"/>
<path d="M371.99 0.19L350.56 39H399.36L343.48 140.2H388.68L466.1 0L371.99 0.19Z" fill="url(#paint1_linear_455_97)"/>
<path d="M473.63 0.19L452.2 39H501.01L445.13 140.2H490.33L567.75 0L473.63 0.19Z" fill="url(#paint2_linear_455_97)"/>
<path d="M371.99 0.19L350.56 39H399.36L343.48 140.2H388.68L466.1 0L371.99 0.19Z" fill="url(#paint3_linear_455_97)"/>
<path d="M16.87 44.19L24.6 0.2H78.2C93.4 0.2 104.93 4.1 112.8 11.9C120.67 19.7 123.47 29.6 121.2 41.6C121.03 42.48 120.83 43.34 120.62 44.19H16.87ZM110.56 77.66L8.04 94.47L0 140.2H59.2C74.93 140.2 87.7 136.6 97.5 129.4C107.3 122.2 113.07 112.73 114.8 101C116.23 91.81 114.8 84.04 110.56 77.65V77.66ZM231.62 44.19C231.83 43.34 232.03 42.48 232.2 41.6C234.47 29.6 231.67 19.7 223.8 11.9C215.93 4.1 204.4 0.2 189.2 0.2H135.6L127.87 44.19H231.62ZM213.2 69.2C217.87 66.41 221.71 62.99 224.75 58.93L122.33 75.72L111 140.2H170.2C185.93 140.2 198.7 136.6 208.5 129.4C218.3 122.2 224.07 112.73 225.8 101C227.93 87.27 223.73 76.67 213.2 69.2ZM347 51.2C349.67 36.4 346.6 24.17 337.8 14.5C329 4.83 317.34 0 302.82 0H246.89L239.04 44.19H314.69L236.77 56.97L222.01 140.01H261.82L269.69 95.89L282.55 96.01L297.02 140.01H337.02L319.02 88.81C334.75 80.81 344.09 68.28 347.02 51.21L347 51.2Z" fill="url(#paint4_linear_455_97)"/>
<path d="M16.87 44.19L24.6 0.2H78.2C93.4 0.2 104.93 4.1 112.8 11.9C120.67 19.7 123.47 29.6 121.2 41.6C121.03 42.48 120.83 43.34 120.62 44.19H16.87ZM110.56 77.66L8.04 94.47L0 140.2H59.2C74.93 140.2 87.7 136.6 97.5 129.4C107.3 122.2 113.07 112.73 114.8 101C116.23 91.81 114.8 84.04 110.56 77.65V77.66ZM231.62 44.19C231.83 43.34 232.03 42.48 232.2 41.6C234.47 29.6 231.67 19.7 223.8 11.9C215.93 4.1 204.4 0.2 189.2 0.2H135.6L127.87 44.19H231.62ZM213.2 69.2C217.87 66.41 221.71 62.99 224.75 58.93L122.33 75.72L111 140.2H170.2C185.93 140.2 198.7 136.6 208.5 129.4C218.3 122.2 224.07 112.73 225.8 101C227.93 87.27 223.73 76.67 213.2 69.2ZM347 51.2C349.67 36.4 346.6 24.17 337.8 14.5C329 4.83 317.34 0 302.82 0H246.89L239.04 44.19H314.69L236.77 56.97L222.01 140.01H261.82L269.69 95.89L282.55 96.01L297.02 140.01H337.02L319.02 88.81C334.75 80.81 344.09 68.28 347.02 51.21L347 51.2Z" fill="url(#paint5_linear_455_97)"/>
<defs>
<linearGradient id="paint0_linear_455_97" x1="419" y1="32" x2="552.5" y2="14.5" gradientUnits="userSpaceOnUse">
<stop stop-color="#005927"/>
<stop offset="1" stop-color="#02C356"/>
</linearGradient>
<linearGradient id="paint1_linear_455_97" x1="317.35" y1="32" x2="450.85" y2="14.5" gradientUnits="userSpaceOnUse">
<stop stop-color="#005927"/>
<stop offset="1" stop-color="#02C356"/>
</linearGradient>
<linearGradient id="paint2_linear_455_97" x1="419" y1="32" x2="552.5" y2="14.5" gradientUnits="userSpaceOnUse">
<stop stop-color="#005927"/>
<stop offset="1" stop-color="#09F6AE"/>
</linearGradient>
<linearGradient id="paint3_linear_455_97" x1="317.35" y1="32" x2="450.85" y2="14.5" gradientUnits="userSpaceOnUse">
<stop stop-color="#005927"/>
<stop offset="1" stop-color="#09F6AE"/>
</linearGradient>
<linearGradient id="paint4_linear_455_97" x1="173.966" y1="0" x2="173.966" y2="140.2" gradientUnits="userSpaceOnUse">
<stop stop-color="white"/>
<stop offset="1" stop-color="#B8C4CF"/>
</linearGradient>
<linearGradient id="paint5_linear_455_97" x1="173.966" y1="0" x2="173.966" y2="140.2" gradientUnits="userSpaceOnUse">
<stop stop-color="white"/>
<stop offset="1" stop-color="#B8C4CF"/>
</linearGradient>
</defs>
</svg>
